<?xml version="1.0" encoding="UTF-8" standalone="no"?>
<svg xmlns:inkscape="http://www.inkscape.org/namespaces/inkscape" xmlns:sodipodi="http://sodipodi.sourceforge.net/DTD/sodipodi-0.dtd" xmlns="http://www.w3.org/2000/svg" xmlns:svg="http://www.w3.org/2000/svg" id="Layer_1" viewBox="0 0 271.46 78.48" version="1.1" sodipodi:docname="pixee_better.svg" inkscape:version="1.3 (0e150ed6c4, 2023-07-21)">
  <defs id="defs9"></defs>
  <g id="pixee">
    <path d="m45.63,13.15c5.09,0,9.18,4.25,9.18,9.36v14.55c0,5.11-4.1,9.36-9.18,9.36H13.14c-.56,0-1.06-.07-1.55-.14v18.65H3.96V13.15h41.67Zm1.55,9.36c0-.86-.71-1.58-1.55-1.58H13.14c-.85,0-1.55.72-1.55,1.58v14.55c0,.86.71,1.58,1.55,1.58h32.49c.85,0,1.55-.72,1.55-1.58v-14.55Z" style="fill:#231f20; stroke-width:0px;" id="path1"></path>
    <path d="m68.38,13.08h7.63v51.84h-7.63V13.08Z" style="fill:#231f20; stroke-width:0px;" id="path2"></path>
    <path d="m142.47,13.08v1.08l-20.48,24.84,20.48,24.84v1.08h-9.04l-16.39-19.87-16.39,19.87h-9.04v-1.08l20.41-24.84-20.41-24.84v-1.08h9.04l16.39,19.87,16.39-19.87h9.04Z" style="fill:#231f20; stroke-width:0px;" id="path3"></path>
    <rect x="158.3" y="13.08" width="46.62" height="7.78" style="stroke-width:0px;fill:#231f20;stroke:none;fill-opacity:1" id="rect3"></rect>
    <rect x="158.3" y="35.11" width="39" height="7.78" style="stroke-width:0px;fill:#231f20;stroke:none;fill-opacity:1" id="rect4"></rect>
    <rect x="158.3" y="57.14" width="46.62" height="7.78" style="stroke-width:0px;fill:#231f20;stroke:none;fill-opacity:1" id="rect5"></rect>
    <rect x="220.88" y="13.08" width="46.62" height="7.78" style="stroke-width:0px;fill:#231f20;stroke:none;fill-opacity:1" id="rect6"></rect>
    <rect x="220.88" y="35.11" width="39" height="7.78" style="stroke-width:0px;fill:#231f20;stroke:none;fill-opacity:1" id="rect7"></rect>
    <rect x="220.88" y="57.14" width="46.62" height="7.78" style="stroke-width:0px;fill:#231f20;stroke:none;fill-opacity:1" id="rect8"></rect>
    <rect x="267.5" y="13.08" width="3.96" height="51.84" style="fill:none; stroke-width:0px;" id="rect9"></rect>
  </g>
</svg>
